<?xml version="1.0" standalone="no"?><!DOCTYPE svg PUBLIC "-//W3C//DTD SVG 1.1//EN" "http://www.w3.org/Graphics/SVG/1.1/DTD/svg11.dtd"><svg t="1605712922820" class="icon" viewBox="0 0 1024 1024" version="1.1" xmlns="http://www.w3.org/2000/svg" p-id="3056" xmlns:xlink="http://www.w3.org/1999/xlink" width="32" height="32"><defs><style type="text/css"></style></defs><path d="M512.23 955.944c-246.643 0-447.297-200.654-447.297-447.296 0-170.762 99.453-329.023 253.361-403.176 10.205-4.863 22.406-0.63 27.297 9.546 4.903 10.173 0.63 22.395-9.545 27.296-139.85 67.384-230.219 211.178-230.219 366.334 0 224.087 182.314 406.4 406.401 406.4s406.402-182.313 406.402-406.4c0-155.416-90.587-299.31-230.777-366.604-10.184-4.882-14.477-17.093-9.585-27.277 4.882-10.194 17.103-14.508 27.277-9.585 154.287 74.053 253.98 232.424 253.98 403.465 0 246.643-200.654 447.297-447.296 447.297z" p-id="3057" fill="#ffffff"></path><path d="M417.229 159.402a92.834 92.834 0 1 0 189.995 0 92.834 92.834 0 1 0-189.995 0z" p-id="3058" fill="#ffffff"></path></svg>